<svg width="20" height="20" viewBox="0 0 20 20" fill="none" xmlns="http://www.w3.org/2000/svg">
<path d="M2.5 2.5C1.93361 2.49996 1.38398 2.69225 0.941152 3.04539C0.498319 3.39852 0.188523 3.89155 0.0625 4.44375L10 10.5175L19.9375 4.44375C19.8115 3.89155 19.5017 3.39852 19.0588 3.04539C18.616 2.69225 18.0664 2.49996 17.5 2.5H2.5ZM0 14.75V5.8725L7.25375 10.305L0 14.75ZM8.45125 11.0375L0.23875 16.07C0.441479 16.4981 0.761652 16.8598 1.16198 17.1129C1.56232 17.3661 2.02633 17.5003 2.5 17.5H10.32C10.1077 16.8977 9.99945 16.2636 10 15.625C9.99914 14.8039 10.1785 13.9926 10.5253 13.2483C10.8722 12.504 11.3782 11.8449 12.0075 11.3175L11.5487 11.0363L10 11.9825L8.45125 11.0375ZM20 12.0887V5.87125L12.7462 10.3038L13.1687 10.5638C13.9343 10.1925 14.7742 9.99973 15.625 10C17.3925 10 18.9688 10.815 20 12.0887Z" fill="black"/>
<path d="M19.7925 15.305C19.7925 16.765 19.0712 17.8363 17.8087 17.8363C17.18 17.8363 16.5562 17.5513 16.4087 17.0263H16.355C16.2075 17.5463 15.6763 17.83 15.0863 17.83C14.1238 17.83 13.5125 17.1525 13.5125 16.0375V15.3762C13.5125 14.3212 14.1137 13.6263 15.0875 13.6263C15.8187 13.6263 16.175 14.0425 16.2787 14.4138H16.3163V13.7038H17.4475V16.4412C17.4475 16.7812 17.6725 16.9662 17.9613 16.9662C18.355 16.9662 18.76 16.4475 18.76 15.2287V15.0812C18.76 13.485 17.5725 12.1738 15.655 12.1738H15.605C13.6275 12.1738 12.305 13.5075 12.305 15.5788V15.775C12.305 18.1087 13.8512 19.0925 15.5175 19.0925H15.5737C16.2075 19.0925 16.7425 19.005 17.0487 18.8675V19.7812C16.775 19.9062 16.245 20 15.5025 20H15.4475C13.0475 20 11.25 18.525 11.25 15.8075V15.54C11.25 12.95 13.0262 11.25 15.6062 11.25H15.65C18.3 11.25 19.7925 13.0375 19.7925 15.0425V15.305ZM14.7425 15.5675V15.8512C14.7425 16.5837 15.0262 16.8512 15.4688 16.8512C15.8562 16.8512 16.1737 16.6388 16.1737 15.9225V15.4638C16.1737 14.8188 15.83 14.5788 15.4587 14.5788C15.0262 14.5788 14.7425 14.885 14.7425 15.5675Z" fill="black"/>
</svg>
