<svg width="156" height="19" viewBox="0 0 156 19" fill="none" xmlns="http://www.w3.org/2000/svg">
<path d="M2.768 18.216C2.064 18.216 1.512 18.024 1.112 17.64C0.728 17.24 0.536 16.672 0.536 15.936V3.36C0.536 2.624 0.728 2.064 1.112 1.68C1.512 1.28 2.088 1.08 2.84 1.08H10.832C11.408 1.08 11.84 1.224 12.128 1.512C12.416 1.8 12.56 2.216 12.56 2.76C12.56 3.32 12.416 3.752 12.128 4.056C11.84 4.344 11.408 4.488 10.832 4.488H4.952V7.896H10.304C10.864 7.896 11.288 8.04 11.576 8.328C11.88 8.616 12.032 9.032 12.032 9.576C12.032 10.136 11.88 10.56 11.576 10.848C11.288 11.136 10.864 11.28 10.304 11.28H4.952V15.936C4.952 17.456 4.224 18.216 2.768 18.216ZM17.2194 18.216C16.5474 18.216 16.0274 18.016 15.6594 17.616C15.2914 17.216 15.1074 16.64 15.1074 15.888V8.304C15.1074 7.552 15.2914 6.976 15.6594 6.576C16.0274 6.176 16.5474 5.976 17.2194 5.976C17.9074 5.976 18.4354 6.176 18.8034 6.576C19.1874 6.976 19.3794 7.552 19.3794 8.304V15.888C19.3794 16.64 19.1954 17.216 18.8274 17.616C18.4594 18.016 17.9234 18.216 17.2194 18.216ZM17.2194 4.272C16.4674 4.272 15.8834 4.096 15.4674 3.744C15.0674 3.392 14.8674 2.88 14.8674 2.208C14.8674 1.552 15.0674 1.048 15.4674 0.696C15.8834 0.343999 16.4674 0.167999 17.2194 0.167999C18.0034 0.167999 18.5954 0.343999 18.9954 0.696C19.3954 1.048 19.5954 1.552 19.5954 2.208C19.5954 2.88 19.3954 3.392 18.9954 3.744C18.5954 4.096 18.0034 4.272 17.2194 4.272ZM24.0414 18.216C23.3374 18.216 22.7934 18.032 22.4094 17.664C22.0414 17.296 21.8574 16.76 21.8574 16.056V8.112C21.8574 7.424 22.0334 6.896 22.3854 6.528C22.7534 6.16 23.2734 5.976 23.9454 5.976C24.6174 5.976 25.1294 6.16 25.4814 6.528C25.8334 6.896 26.0094 7.424 26.0094 8.112V9.096H25.7694C25.9294 8.136 26.3374 7.376 26.9934 6.816C27.6654 6.256 28.4974 5.96 29.4894 5.928C29.9534 5.912 30.2974 6.032 30.5214 6.288C30.7614 6.528 30.8894 6.984 30.9054 7.656C30.9054 8.232 30.7854 8.688 30.5454 9.024C30.3054 9.36 29.8494 9.56 29.1774 9.624L28.6254 9.672C27.7774 9.752 27.1614 9.992 26.7774 10.392C26.3934 10.776 26.2014 11.352 26.2014 12.12V16.056C26.2014 16.76 26.0174 17.296 25.6494 17.664C25.2814 18.032 24.7454 18.216 24.0414 18.216ZM36.8504 18.264C36.1464 18.264 35.4264 18.208 34.6904 18.096C33.9704 18 33.3144 17.816 32.7224 17.544C32.3224 17.384 32.0344 17.168 31.8584 16.896C31.6984 16.624 31.6184 16.336 31.6184 16.032C31.6344 15.728 31.7224 15.456 31.8824 15.216C32.0584 14.96 32.2824 14.784 32.5544 14.688C32.8424 14.576 33.1624 14.584 33.5144 14.712C34.1864 14.952 34.7864 15.128 35.3144 15.24C35.8584 15.336 36.3784 15.384 36.8744 15.384C37.4664 15.384 37.8904 15.304 38.1464 15.144C38.4024 14.968 38.5304 14.744 38.5304 14.472C38.5304 14.232 38.4424 14.048 38.2664 13.92C38.1064 13.792 37.8744 13.704 37.5704 13.656L34.9064 13.224C33.9144 13.048 33.1464 12.688 32.6024 12.144C32.0584 11.584 31.7864 10.856 31.7864 9.96C31.7864 9.128 32.0184 8.416 32.4824 7.824C32.9624 7.216 33.6104 6.752 34.4264 6.432C35.2584 6.096 36.2104 5.928 37.2824 5.928C38.0024 5.928 38.6584 5.984 39.2504 6.096C39.8424 6.192 40.4184 6.376 40.9784 6.648C41.3304 6.792 41.5784 7 41.7224 7.272C41.8664 7.544 41.9224 7.832 41.8904 8.136C41.8584 8.424 41.7544 8.696 41.5784 8.952C41.4184 9.192 41.1944 9.36 40.9064 9.456C40.6184 9.536 40.2824 9.512 39.8984 9.384C39.3704 9.176 38.8984 9.024 38.4824 8.928C38.0824 8.832 37.7064 8.784 37.3544 8.784C36.6984 8.784 36.2344 8.872 35.9624 9.048C35.6904 9.224 35.5544 9.448 35.5544 9.72C35.5544 9.928 35.6264 10.104 35.7704 10.248C35.9144 10.376 36.1384 10.464 36.4424 10.512L39.1064 10.968C40.1304 11.128 40.9144 11.48 41.4584 12.024C42.0184 12.552 42.2984 13.272 42.2984 14.184C42.2984 15.48 41.8024 16.488 40.8104 17.208C39.8184 17.912 38.4984 18.264 36.8504 18.264ZM50.1275 18.264C48.9275 18.264 47.9355 18.08 47.1515 17.712C46.3835 17.344 45.8075 16.792 45.4235 16.056C45.0395 15.304 44.8475 14.368 44.8475 13.248V9.336H44.0315C43.5195 9.336 43.1195 9.2 42.8315 8.928C42.5595 8.656 42.4235 8.264 42.4235 7.752C42.4235 7.24 42.5595 6.856 42.8315 6.6C43.1195 6.328 43.5195 6.192 44.0315 6.192H44.8475V4.704C44.8475 4 45.0315 3.464 45.3995 3.096C45.7675 2.728 46.2955 2.544 46.9835 2.544C47.6715 2.544 48.1995 2.728 48.5675 3.096C48.9355 3.464 49.1195 4 49.1195 4.704V6.192H51.0875C51.6155 6.192 52.0155 6.328 52.2875 6.6C52.5755 6.856 52.7195 7.24 52.7195 7.752C52.7195 8.264 52.5755 8.656 52.2875 8.928C52.0155 9.2 51.6155 9.336 51.0875 9.336H49.1195V13.104C49.1195 13.696 49.2555 14.136 49.5275 14.424C49.8155 14.696 50.2635 14.832 50.8715 14.832C51.0955 14.832 51.3115 14.808 51.5195 14.76C51.7275 14.712 51.9195 14.688 52.0955 14.688C52.3515 14.672 52.5595 14.752 52.7195 14.928C52.8795 15.088 52.9595 15.464 52.9595 16.056C52.9595 16.536 52.8875 16.944 52.7435 17.28C52.5995 17.6 52.3435 17.832 51.9755 17.976C51.7515 18.056 51.4475 18.12 51.0635 18.168C50.6795 18.232 50.3675 18.264 50.1275 18.264ZM65.6458 18.168C65.3578 18.168 65.1338 18.088 64.9738 17.928C64.8138 17.752 64.7018 17.496 64.6378 17.16L61.7818 2.136C61.7018 1.752 61.7498 1.456 61.9258 1.248C62.1018 1.024 62.3578 0.912 62.6938 0.912C62.9498 0.912 63.1578 0.984 63.3178 1.128C63.4778 1.272 63.5898 1.512 63.6538 1.848L66.2938 16.32H65.4538L72.8458 1.704C72.9898 1.432 73.1498 1.232 73.3258 1.104C73.5178 0.975999 73.7418 0.912 73.9978 0.912C74.2378 0.912 74.4298 0.992 74.5738 1.152C74.7338 1.312 74.8458 1.576 74.9098 1.944L77.5738 16.32H76.8298L84.1978 1.656C84.3258 1.4 84.4698 1.216 84.6298 1.104C84.8058 0.975999 85.0138 0.912 85.2538 0.912C85.6538 0.912 85.9178 1.04 86.0458 1.296C86.1738 1.552 86.1498 1.864 85.9738 2.232L78.2698 17.376C78.1258 17.648 77.9578 17.848 77.7658 17.976C77.5898 18.104 77.3498 18.168 77.0458 18.168C76.7738 18.168 76.5498 18.088 76.3738 17.928C76.2138 17.752 76.1018 17.496 76.0378 17.16L73.4458 3.36H73.9498L66.8458 17.376C66.7018 17.648 66.5418 17.848 66.3658 17.976C66.1898 18.104 65.9498 18.168 65.6458 18.168ZM90.5816 18.216C89.4776 18.216 88.5176 18.008 87.7016 17.592C86.8856 17.176 86.2536 16.584 85.8056 15.816C85.3736 15.032 85.1576 14.112 85.1576 13.056C85.1576 11.792 85.4136 10.64 85.9256 9.6C86.4376 8.544 87.1576 7.704 88.0856 7.08C89.0136 6.44 90.1176 6.12 91.3976 6.12C92.3096 6.12 93.0696 6.28 93.6776 6.6C94.3016 6.92 94.7976 7.352 95.1656 7.896C95.5336 8.44 95.7736 9.064 95.8856 9.768C95.9976 10.456 96.0136 11.168 95.9336 11.904C95.9016 12.176 95.8296 12.36 95.7176 12.456C95.6056 12.536 95.4296 12.576 95.1896 12.576H86.6696L86.8616 11.304H94.7336L94.3016 11.616C94.4136 10.864 94.3896 10.184 94.2296 9.576C94.0696 8.968 93.7576 8.48 93.2936 8.112C92.8296 7.744 92.1896 7.56 91.3736 7.56C90.5096 7.56 89.7896 7.76 89.2136 8.16C88.6376 8.544 88.1816 9.04 87.8456 9.648C87.5256 10.256 87.3096 10.888 87.1976 11.544L87.1016 12.12C86.8776 13.48 87.0856 14.576 87.7256 15.408C88.3656 16.24 89.3496 16.656 90.6776 16.656C91.2536 16.656 91.8136 16.584 92.3576 16.44C92.9016 16.296 93.4136 16.064 93.8936 15.744C94.1176 15.6 94.3096 15.536 94.4696 15.552C94.6456 15.552 94.7816 15.608 94.8776 15.72C94.9896 15.816 95.0536 15.944 95.0696 16.104C95.1016 16.248 95.0776 16.408 94.9976 16.584C94.9336 16.744 94.8056 16.896 94.6136 17.04C94.0696 17.424 93.4296 17.72 92.6936 17.928C91.9576 18.12 91.2536 18.216 90.5816 18.216ZM103.955 18.216C103.027 18.216 102.195 17.984 101.459 17.52C100.723 17.04 100.219 16.32 99.947 15.36L100.139 15.072L99.827 17.184C99.779 17.504 99.667 17.752 99.491 17.928C99.315 18.088 99.067 18.168 98.747 18.168C98.443 18.168 98.219 18.072 98.075 17.88C97.931 17.672 97.883 17.384 97.931 17.016L100.331 1.896C100.379 1.56 100.499 1.312 100.691 1.152C100.883 0.992 101.131 0.912 101.435 0.912C101.739 0.912 101.963 1.016 102.107 1.224C102.251 1.416 102.299 1.696 102.251 2.064L101.171 8.808H100.907C101.323 7.976 101.907 7.32 102.659 6.84C103.427 6.36 104.307 6.12 105.299 6.12C106.211 6.12 107.003 6.32 107.675 6.72C108.363 7.12 108.891 7.696 109.259 8.448C109.627 9.2 109.811 10.088 109.811 11.112C109.811 12.392 109.579 13.576 109.115 14.664C108.667 15.736 108.003 16.6 107.123 17.256C106.259 17.896 105.203 18.216 103.955 18.216ZM103.715 16.656C104.611 16.656 105.363 16.408 105.971 15.912C106.579 15.416 107.043 14.752 107.363 13.92C107.683 13.088 107.843 12.176 107.843 11.184C107.843 10.032 107.563 9.16 107.003 8.568C106.443 7.976 105.675 7.68 104.699 7.68C103.819 7.68 103.067 7.928 102.443 8.424C101.835 8.92 101.371 9.576 101.051 10.392C100.731 11.208 100.571 12.128 100.571 13.152C100.571 14.288 100.851 15.16 101.411 15.768C101.971 16.36 102.739 16.656 103.715 16.656ZM124.495 18.192C123.695 18.192 122.935 18.12 122.215 17.976C121.495 17.832 120.823 17.624 120.199 17.352C119.591 17.08 119.039 16.744 118.543 16.344C118.431 16.248 118.351 16.144 118.303 16.032C118.271 15.92 118.271 15.816 118.303 15.72C118.351 15.608 118.415 15.52 118.495 15.456C118.575 15.392 118.671 15.36 118.783 15.36C118.895 15.36 119.007 15.408 119.119 15.504C119.871 16.096 120.663 16.528 121.495 16.8C122.343 17.072 123.343 17.208 124.495 17.208C126.095 17.208 127.295 16.888 128.095 16.248C128.911 15.608 129.319 14.76 129.319 13.704C129.319 12.84 129.023 12.168 128.431 11.688C127.839 11.192 126.871 10.808 125.527 10.536L123.151 10.056C121.647 9.752 120.527 9.248 119.791 8.544C119.055 7.84 118.687 6.888 118.687 5.688C118.687 4.968 118.823 4.32 119.095 3.744C119.383 3.152 119.783 2.648 120.295 2.232C120.807 1.8 121.415 1.472 122.119 1.248C122.823 1.008 123.599 0.887999 124.447 0.887999C125.503 0.887999 126.471 1.048 127.351 1.368C128.231 1.672 129.031 2.152 129.751 2.808C129.863 2.904 129.935 3.016 129.967 3.144C129.999 3.256 129.991 3.368 129.943 3.48C129.911 3.576 129.855 3.656 129.775 3.72C129.711 3.768 129.623 3.792 129.511 3.792C129.399 3.792 129.287 3.736 129.175 3.624C128.487 3.016 127.759 2.576 126.991 2.304C126.223 2.016 125.375 1.872 124.447 1.872C123.503 1.872 122.679 2.032 121.975 2.352C121.271 2.656 120.719 3.096 120.319 3.672C119.935 4.248 119.743 4.92 119.743 5.688C119.743 6.616 120.015 7.352 120.559 7.896C121.103 8.424 121.983 8.808 123.199 9.048L125.575 9.528C127.207 9.864 128.415 10.36 129.199 11.016C129.983 11.656 130.375 12.544 130.375 13.68C130.375 14.352 130.239 14.968 129.967 15.528C129.695 16.072 129.303 16.544 128.791 16.944C128.295 17.344 127.679 17.656 126.943 17.88C126.223 18.088 125.407 18.192 124.495 18.192ZM133.989 18.072C133.829 18.072 133.701 18.024 133.605 17.928C133.525 17.832 133.485 17.704 133.485 17.544V6.84C133.485 6.664 133.525 6.536 133.605 6.456C133.701 6.36 133.829 6.312 133.989 6.312C134.149 6.312 134.269 6.36 134.349 6.456C134.445 6.536 134.493 6.664 134.493 6.84V17.544C134.493 17.704 134.453 17.832 134.373 17.928C134.293 18.024 134.165 18.072 133.989 18.072ZM133.989 3.216C133.733 3.216 133.525 3.144 133.365 3C133.221 2.84 133.149 2.632 133.149 2.376C133.149 2.104 133.221 1.904 133.365 1.776C133.525 1.632 133.733 1.56 133.989 1.56C134.261 1.56 134.469 1.632 134.613 1.776C134.757 1.904 134.829 2.104 134.829 2.376C134.829 2.632 134.757 2.84 134.613 3C134.469 3.144 134.261 3.216 133.989 3.216ZM142.651 18.192C141.851 18.192 141.179 18.04 140.635 17.736C140.091 17.416 139.683 16.968 139.411 16.392C139.139 15.8 139.003 15.088 139.003 14.256V7.248H137.059C136.899 7.248 136.771 7.208 136.675 7.128C136.579 7.048 136.531 6.944 136.531 6.816C136.531 6.688 136.579 6.584 136.675 6.504C136.771 6.424 136.899 6.384 137.059 6.384H139.003V3.144C139.003 2.968 139.043 2.84 139.123 2.76C139.219 2.664 139.347 2.616 139.507 2.616C139.667 2.616 139.787 2.664 139.867 2.76C139.963 2.84 140.011 2.968 140.011 3.144V6.384H143.443C143.619 6.384 143.747 6.424 143.827 6.504C143.923 6.584 143.971 6.688 143.971 6.816C143.971 6.944 143.923 7.048 143.827 7.128C143.747 7.208 143.619 7.248 143.443 7.248H140.011V14.04C140.011 15.08 140.219 15.88 140.635 16.44C141.051 16.984 141.747 17.256 142.723 17.256C143.059 17.256 143.331 17.224 143.539 17.16C143.763 17.08 143.947 17.04 144.091 17.04C144.187 17.04 144.267 17.08 144.331 17.16C144.411 17.24 144.451 17.352 144.451 17.496C144.451 17.576 144.427 17.664 144.379 17.76C144.347 17.84 144.275 17.896 144.163 17.928C144.003 17.992 143.771 18.048 143.467 18.096C143.179 18.16 142.907 18.192 142.651 18.192ZM150.966 18.192C149.814 18.192 148.822 17.952 147.99 17.472C147.158 16.992 146.51 16.312 146.046 15.432C145.598 14.536 145.374 13.472 145.374 12.24C145.374 11.024 145.598 9.968 146.046 9.072C146.51 8.16 147.142 7.456 147.942 6.96C148.758 6.448 149.694 6.192 150.75 6.192C151.502 6.192 152.166 6.32 152.742 6.576C153.334 6.832 153.83 7.2 154.23 7.68C154.646 8.16 154.958 8.744 155.166 9.432C155.39 10.12 155.502 10.896 155.502 11.76C155.502 11.968 155.454 12.128 155.358 12.24C155.278 12.336 155.15 12.384 154.974 12.384H146.022V11.496H154.974L154.566 11.784C154.566 10.808 154.422 9.976 154.134 9.288C153.846 8.584 153.414 8.048 152.838 7.68C152.278 7.296 151.574 7.104 150.726 7.104C149.798 7.104 149.006 7.328 148.35 7.776C147.71 8.208 147.222 8.8 146.886 9.552C146.566 10.304 146.406 11.16 146.406 12.12V12.24C146.406 13.84 146.798 15.08 147.582 15.96C148.382 16.824 149.494 17.256 150.918 17.256C151.558 17.256 152.158 17.176 152.718 17.016C153.278 16.84 153.83 16.536 154.374 16.104C154.486 16.008 154.598 15.96 154.71 15.96C154.838 15.944 154.942 15.968 155.022 16.032C155.118 16.08 155.182 16.152 155.214 16.248C155.262 16.328 155.27 16.424 155.238 16.536C155.206 16.648 155.126 16.752 154.998 16.848C154.502 17.264 153.894 17.592 153.174 17.832C152.454 18.072 151.718 18.192 150.966 18.192Z" fill="#3094FF"/>
</svg>
