<svg width="20" height="16" viewBox="0 0 20 16" fill="none" xmlns="http://www.w3.org/2000/svg">
<path d="M5 3C5 2.33696 5.26339 1.70107 5.73223 1.23223C6.20108 0.763392 6.83696 0.5 7.5 0.5H12.5C13.163 0.5 13.7989 0.763392 14.2678 1.23223C14.7366 1.70107 15 2.33696 15 3V13C15 13.663 14.7366 14.2989 14.2678 14.7678C13.7989 15.2366 13.163 15.5 12.5 15.5H7.5C6.83696 15.5 6.20108 15.2366 5.73223 14.7678C5.26339 14.2989 5 13.663 5 13V3ZM11.25 11.75C11.25 11.4185 11.1183 11.1005 10.8839 10.8661C10.6495 10.6317 10.3315 10.5 10 10.5C9.66848 10.5 9.35054 10.6317 9.11612 10.8661C8.8817 11.1005 8.75 11.4185 8.75 11.75C8.75 12.0815 8.8817 12.3995 9.11612 12.6339C9.35054 12.8683 9.66848 13 10 13C10.3315 13 10.6495 12.8683 10.8839 12.6339C11.1183 12.3995 11.25 12.0815 11.25 11.75ZM2.25875 3.9175C2.33633 3.77097 2.35252 3.59962 2.30376 3.44115C2.255 3.28268 2.14528 3.15008 1.99875 3.0725C1.85222 2.99492 1.68087 2.97874 1.5224 3.02749C1.36393 3.07625 1.23133 3.18597 1.15375 3.3325C0.395304 4.77135 -0.000725532 6.37349 9.9783e-07 8C9.9783e-07 9.68375 0.417501 11.2725 1.15375 12.6675C1.19216 12.7401 1.24449 12.8043 1.30774 12.8567C1.371 12.909 1.44394 12.9484 1.5224 12.9725C1.60087 12.9966 1.68332 13.0051 1.76505 12.9974C1.84679 12.9897 1.9262 12.9659 1.99875 12.9275C2.07131 12.8891 2.13559 12.8368 2.18792 12.7735C2.24025 12.7103 2.27961 12.6373 2.30376 12.5588C2.3279 12.4804 2.33635 12.3979 2.32863 12.3162C2.32091 12.2345 2.29716 12.1551 2.25875 12.0825C1.59563 10.8239 1.24938 9.4226 1.25 8C1.25 6.525 1.615 5.135 2.25875 3.9175ZM18.8463 3.3325C18.7687 3.18597 18.6361 3.07625 18.4776 3.02749C18.3191 2.97874 18.1478 2.99492 18.0013 3.0725C17.8547 3.15008 17.745 3.28268 17.6962 3.44115C17.6475 3.59962 17.6637 3.77097 17.7413 3.9175C18.385 5.135 18.75 6.52375 18.75 8C18.75 9.475 18.385 10.865 17.7413 12.0825C17.6637 12.229 17.6475 12.4004 17.6962 12.5588C17.745 12.7173 17.8547 12.8499 18.0013 12.9275C18.1478 13.0051 18.3191 13.0213 18.4776 12.9725C18.6361 12.9237 18.7687 12.814 18.8463 12.6675C19.6047 11.2286 20.0007 9.62651 20 8C20.0007 6.37349 19.6047 4.77135 18.8463 3.3325ZM4.175 5.7275C4.20988 5.65025 4.22868 5.56671 4.23027 5.48196C4.23185 5.39721 4.21617 5.31303 4.1842 5.23453C4.15223 5.15603 4.10462 5.08486 4.04427 5.02533C3.98393 4.96581 3.9121 4.91919 3.83317 4.88829C3.75424 4.8574 3.66985 4.84288 3.58513 4.84563C3.50042 4.84837 3.41714 4.86832 3.34038 4.90426C3.26361 4.9402 3.19496 4.99138 3.13859 5.05468C3.08223 5.11799 3.03933 5.19209 3.0125 5.2725C2.67348 6.14187 2.49967 7.06687 2.5 8C2.5 8.96125 2.68125 9.88125 3.0125 10.7275C3.03933 10.8079 3.08223 10.882 3.13859 10.9453C3.19496 11.0086 3.26361 11.0598 3.34038 11.0957C3.41714 11.1317 3.50042 11.1516 3.58513 11.1544C3.66985 11.1571 3.75424 11.1426 3.83317 11.1117C3.9121 11.0808 3.98393 11.0342 4.04427 10.9747C4.10462 10.9151 4.15223 10.844 4.1842 10.7655C4.21617 10.687 4.23185 10.6028 4.23027 10.518C4.22868 10.4333 4.20988 10.3498 4.175 10.2725C3.89325 9.54802 3.74911 8.77734 3.75 8C3.75 7.1975 3.9 6.43125 4.175 5.7275ZM16.9875 5.2725C16.9216 5.12646 16.802 5.01132 16.6536 4.95087C16.5052 4.89043 16.3393 4.88929 16.1901 4.94769C16.0409 5.00609 15.9198 5.11958 15.8518 5.2647C15.7839 5.40982 15.7743 5.5755 15.825 5.7275C16.1 6.43125 16.25 7.1975 16.25 8C16.25 8.8025 16.1 9.56875 15.825 10.2725C15.7743 10.4245 15.7839 10.5902 15.8518 10.7353C15.9198 10.8804 16.0409 10.9939 16.1901 11.0523C16.3393 11.1107 16.5052 11.1096 16.6536 11.0491C16.802 10.9887 16.9216 10.8735 16.9875 10.7275C17.32 9.88125 17.5 8.96125 17.5 8C17.5 7.03875 17.3188 6.11875 16.9875 5.2725Z" fill="black"/>
</svg>
